<?xml version="1.0" encoding="UTF-8" standalone="no"?>
<!DOCTYPE svg PUBLIC "-//W3C//DTD SVG 20010904//EN"
              "http://www.w3.org/TR/2001/REC-SVG-20010904/DTD/svg10.dtd">

<svg xmlns="http://www.w3.org/2000/svg"
     width="83.3333in" height="55.5556in"
     viewBox="0 0 6000 4000">
  <path id="Unnamed"
        fill="none" stroke="black" stroke-width="5"
        d="M 2171.50,1077.00
           C 2171.50,1077.00 2138.67,1122.67 2138.67,1122.67
             2138.67,1122.67 2117.33,1128.00 2117.33,1128.00
             2117.33,1128.00 2112.00,1178.67 2112.00,1178.67
             2112.00,1178.67 2091.23,1216.43 2091.23,1216.43
             2091.23,1216.43 2068.67,1232.00 2068.67,1232.00
             2068.67,1232.00 2056.00,1254.67 2056.00,1254.67
             2056.00,1254.67 2033.33,1320.67 2033.33,1320.67
             2033.33,1320.67 2018.66,1346.92 2018.66,1346.92
             2018.66,1346.92 2001.33,1349.33 2001.33,1349.33
             2001.33,1349.33 1982.00,1380.67 1982.00,1380.67
             1982.00,1380.67 1992.00,1402.00 1992.00,1402.00
             1992.00,1402.00 1965.33,1437.33 1965.33,1437.33
             1965.33,1437.33 1958.00,1464.00 1958.00,1464.00
             1958.00,1464.00 1938.00,1487.33 1938.00,1487.33
             1938.00,1487.33 1970.67,1530.00 1970.67,1530.00
             1970.67,1530.00 2005.50,1530.50 2005.50,1530.50
             2005.50,1530.50 2013.33,1567.33 2013.33,1567.33
             2013.33,1567.33 2002.00,1631.33 2002.00,1631.33
             2002.00,1631.33 1979.33,1654.00 1979.33,1654.00
             1979.33,1654.00 2017.33,1710.00 2017.33,1710.00
             2017.33,1710.00 2013.33,1730.00 2013.33,1730.00
             2013.33,1730.00 2029.33,1744.00 2029.33,1744.00
             2029.33,1744.00 2044.67,1791.33 2044.67,1791.33
             2044.67,1791.33 2047.33,1846.00 2047.33,1846.00
             2047.33,1846.00 1995.33,1902.00 1995.33,1902.00
             1995.33,1902.00 1938.67,1928.00 1938.67,1928.00
             1938.67,1928.00 1925.33,1954.67 1925.33,1954.67
             1925.33,1954.67 1881.67,1974.67 1881.33,1974.67
             1881.12,1974.67 1852.00,1994.00 1852.00,1994.00
             1852.00,1994.00 1842.00,2028.67 1842.00,2028.67
             1842.00,2028.67 1843.33,2064.00 1843.33,2064.00
             1843.33,2064.00 1818.67,2122.00 1818.67,2122.00
             1818.67,2122.00 1784.67,2168.67 1784.67,2168.67
             1784.67,2168.67 1771.33,2206.67 1771.33,2206.67
             1771.33,2206.67 1755.33,2245.33 1755.33,2245.33
             1755.33,2245.33 1733.33,2286.00 1733.33,2286.00
             1733.33,2286.00 1825.50,2318.50 1825.50,2318.50
             1825.50,2318.50 1884.00,2360.00 1884.00,2360.00
             1884.00,2360.00 1906.00,2414.67 1906.00,2414.67
             1906.00,2414.67 1998.50,2418.00 1998.50,2418.00
             1998.50,2418.00 2016.00,2467.00 2016.00,2467.00
             2016.00,2467.00 1989.50,2507.50 1989.50,2507.50
             1989.50,2507.50 1977.00,2554.50 1977.00,2554.50
             1977.00,2554.50 1996.00,2598.50 1996.00,2598.50
             1996.00,2598.50 2030.00,2602.50 2030.00,2602.50
             2030.00,2602.50 2050.50,2635.00 2050.50,2635.00
             2050.50,2635.00 2057.00,2665.00 2057.00,2665.00
             2057.00,2665.00 2039.00,2694.00 2039.00,2694.00
             2039.00,2694.00 2056.00,2720.00 2056.00,2720.00
             2056.00,2720.00 2046.75,2754.50 2046.50,2754.50
             2046.29,2754.50 2068.50,2779.00 2068.50,2779.00
             2068.50,2779.00 2047.50,2793.00 2047.50,2793.00
             2047.50,2793.00 2074.00,2818.50 2074.00,2818.50
             2074.00,2818.50 2124.00,2822.00 2124.00,2822.00
             2124.00,2822.00 2156.00,2828.00 2156.00,2828.00
             2156.00,2828.00 2197.00,2825.50 2197.00,2825.50
             2197.00,2825.50 2230.00,2830.50 2230.00,2830.50
             2230.00,2830.50 2306.00,2894.00 2306.00,2894.00
             2306.00,2894.00 2351.00,2945.50 2351.00,2945.50
             2351.00,2945.50 2387.50,2936.50 2387.50,2936.50
             2387.50,2936.50 2419.50,2986.50 2419.50,2986.50
             2419.50,2986.50 2452.00,3036.50 2452.00,3036.50
             2452.00,3036.50 2464.00,3077.50 2464.00,3077.50
             2464.00,3077.50 2476.00,3104.00 2476.00,3104.00
             2476.00,3104.00 2487.00,3165.50 2487.00,3165.50
             2487.00,3165.50 2518.00,3180.50 2518.00,3180.50
             2518.00,3180.50 2533.50,3192.50 2533.50,3192.50
             2533.50,3192.50 2530.00,3217.00 2530.00,3217.00
             2530.00,3217.00 2546.00,3237.50 2546.00,3237.50
             2546.00,3237.50 2547.50,3264.50 2547.50,3264.50
             2547.50,3264.50 2534.50,3273.50 2534.50,3273.50
             2534.50,3273.50 2538.50,3306.00 2538.50,3306.00
             2538.50,3306.00 2524.00,3327.50 2524.00,3327.50
             2524.00,3327.50 2518.67,3356.00 2518.67,3356.00
             2518.67,3356.00 2569.00,3423.50 2569.00,3423.50
             2569.00,3423.50 2580.50,3446.00 2580.50,3446.00
             2580.50,3446.00 2578.50,3473.50 2578.50,3473.50
             2578.50,3473.50 2602.00,3480.50 2602.00,3480.50
             2602.00,3480.50 2628.50,3483.00 2628.50,3483.00
             2628.50,3483.00 2696.00,3530.00 2696.00,3530.00
             2696.00,3530.00 2732.00,3541.50 2732.00,3541.50
             2732.00,3541.50 2771.00,3551.00 2771.00,3551.00
             2771.00,3551.00 2817.00,3552.00 2817.00,3552.00
             2817.00,3552.00 2854.00,3554.50 2854.00,3554.50
             2854.00,3554.50 2866.50,3562.00 2866.50,3562.00
             2866.50,3562.00 2931.00,3568.00 2931.00,3568.00
             2931.00,3568.00 2999.00,3570.50 2999.00,3570.50
             2999.00,3570.50 3060.00,3570.00 3060.00,3570.00
             3060.00,3570.00 3134.50,3567.00 3134.50,3567.00
             3134.50,3567.00 3152.50,3549.00 3152.50,3549.00
             3152.50,3549.00 3166.50,3535.50 3166.50,3535.50
             3166.50,3535.50 3214.00,3530.50 3214.00,3530.50
             3214.00,3530.50 3273.00,3523.50 3273.00,3523.50
             3273.00,3523.50 3332.00,3513.00 3332.00,3513.00
             3332.00,3513.00 3380.00,3503.00 3380.00,3503.00
             3380.00,3503.00 3434.00,3490.00 3434.00,3490.00
             3434.00,3490.00 3489.00,3474.50 3489.00,3474.50
             3489.00,3474.50 3559.50,3452.00 3559.50,3452.00
             3559.50,3452.00 3605.00,3433.50 3605.00,3433.50
             3605.00,3433.50 3653.00,3493.00 3653.00,3493.00
             3653.00,3493.00 3718.00,3460.00 3718.00,3460.00
             3718.00,3460.00 3751.00,3441.50 3751.00,3441.50
             3751.00,3441.50 3752.50,3425.50 3752.50,3425.50
             3752.50,3425.50 3783.50,3406.50 3783.50,3406.50
             3783.50,3406.50 3790.00,3384.50 3790.00,3384.50
             3790.00,3384.50 3793.00,3366.00 3793.00,3366.00
             3793.00,3366.00 3804.00,3353.50 3804.00,3353.50
             3804.00,3353.50 3817.00,3333.50 3817.00,3333.50
             3817.00,3333.50 3821.50,3317.00 3821.50,3317.00
             3821.50,3317.00 3855.00,3296.00 3855.00,3296.00
             3855.00,3296.00 3866.00,3283.50 3866.00,3283.50
             3866.00,3283.50 3868.50,3266.00 3868.50,3266.00
             3868.50,3266.00 3867.00,3249.50 3867.00,3249.50
             3867.00,3249.50 3863.00,3238.50 3863.00,3238.50
             3863.00,3238.50 3865.50,3224.00 3865.50,3224.00
             3865.50,3224.00 3869.00,3211.00 3869.00,3211.00
             3869.00,3211.00 3878.00,3197.00 3878.00,3197.00
             3878.00,3197.00 3884.00,3178.00 3884.00,3178.00
             3884.00,3178.00 3893.50,3168.50 3893.50,3168.50
             3893.50,3168.50 3906.00,3165.50 3906.00,3165.50
             3906.00,3165.50 3918.00,3150.50 3918.00,3150.50
             3918.00,3150.50 3924.00,3134.50 3924.00,3134.50
             3924.00,3134.50 3954.50,3107.50 3954.50,3107.50
             3954.50,3107.50 3967.00,3096.00 3967.00,3096.00
             3967.00,3096.00 3987.00,3095.50 3987.00,3095.50
             3987.00,3095.50 4005.00,3079.50 4005.00,3079.50
             4005.00,3079.50 4015.50,3075.50 4015.50,3075.50
             4015.50,3075.50 4024.50,3083.00 4024.50,3083.00
             4024.50,3083.00 4041.00,3063.00 4041.00,3063.00
             4041.00,3063.00 4071.50,3077.50 4071.50,3077.50
             4071.50,3077.50 4085.00,3118.50 4085.00,3118.50
             4085.00,3118.50 4102.00,3093.00 4102.00,3093.00
             4102.00,3093.00 4117.50,3092.50 4117.50,3092.50
             4117.50,3092.50 4122.50,3078.00 4122.50,3078.00
             4122.50,3078.00 4134.00,3060.50 4134.00,3060.50
             4134.00,3060.50 4151.00,3050.50 4151.00,3050.50
             4151.00,3050.50 4162.50,3035.00 4162.50,3035.00
             4162.50,3035.00 4182.50,3028.50 4182.50,3028.50
             4182.50,3028.50 4201.00,3001.00 4201.00,3001.00
             4201.00,3001.00 4215.50,2961.00 4215.50,2961.00
             4215.50,2961.00 4208.50,2925.50 4208.50,2925.50
             4208.50,2925.50 4215.00,2897.00 4215.00,2897.00
             4215.00,2897.00 4224.50,2872.50 4224.50,2872.50
             4224.50,2872.50 4247.00,2851.50 4247.00,2851.50
             4247.00,2851.50 4264.00,2837.50 4264.00,2837.50
             4264.00,2837.50 4298.00,2834.00 4298.00,2834.00
             4298.00,2834.00 4296.00,2809.50 4296.00,2809.50
             4296.00,2809.50 4297.50,2786.50 4297.50,2786.50
             4297.50,2786.50 4294.00,2771.50 4294.00,2771.50
             4294.00,2771.50 4309.50,2741.50 4309.50,2741.50
             4309.50,2741.50 4314.50,2695.50 4314.50,2695.50
             4314.50,2695.50 4324.00,2672.00 4324.00,2672.00
             4324.00,2672.00 4353.00,2631.00 4353.00,2631.00
             4353.00,2631.00 4359.50,2593.50 4359.50,2593.50
             4359.50,2593.50 4381.00,2561.00 4381.00,2561.00
             4381.00,2561.00 4378.50,2545.50 4378.50,2545.50
             4378.50,2545.50 4391.00,2535.50 4391.00,2535.50
             4391.00,2535.50 4398.00,2488.50 4398.00,2488.50
             4398.00,2488.50 4410.50,2478.50 4410.50,2478.50
             4410.50,2478.50 4447.00,2527.50 4447.00,2527.50
             4447.00,2527.50 4465.00,2476.00 4465.00,2476.00
             4465.00,2476.00 4486.50,2436.50 4486.50,2436.50
             4486.50,2436.50 4510.00,2393.00 4510.00,2393.00
             4510.00,2393.00 4527.00,2355.50 4527.00,2355.50
             4527.00,2355.50 4550.50,2330.00 4550.50,2330.00
             4550.50,2330.00 4554.50,2311.00 4554.50,2311.00
             4554.50,2311.00 4540.00,2245.50 4540.00,2245.50
             4540.00,2245.50 4523.50,2243.50 4523.50,2243.50
             4523.50,2243.50 4510.00,2242.50 4510.00,2242.50
             4510.00,2242.50 4510.00,2221.50 4510.00,2221.50
             4510.00,2221.50 4530.00,2186.50 4530.00,2186.50
             4530.00,2186.50 4539.00,2177.50 4539.00,2177.50
             4539.00,2177.50 4538.00,2163.00 4538.00,2163.00
             4538.00,2163.00 4522.00,2157.00 4522.00,2157.00
             4522.00,2157.00 4523.00,2130.50 4523.00,2130.50
             4523.00,2130.50 4527.00,2115.00 4527.00,2115.00
             4527.00,2115.00 4514.00,2087.50 4514.00,2087.50
             4514.00,2087.50 4501.00,2079.50 4501.00,2079.50
             4501.00,2079.50 4506.00,2058.50 4506.00,2058.50
             4506.00,2058.50 4489.00,2017.00 4489.00,2017.00
             4489.00,2017.00 4493.50,1960.50 4493.50,1960.50
             4493.50,1960.50 4515.00,1939.00 4515.00,1939.00
             4515.00,1939.00 4499.50,1881.50 4499.50,1881.50
             4499.50,1881.50 4496.00,1852.50 4496.00,1852.50
             4496.00,1852.50 4510.50,1815.50 4510.50,1815.50
             4510.50,1815.50 4481.50,1785.50 4481.50,1785.50
             4481.50,1785.50 4474.50,1752.00 4474.50,1752.00
             4474.50,1752.00 4454.50,1740.50 4454.50,1740.50
             4454.50,1740.50 4448.00,1713.50 4448.00,1713.50
             4448.00,1713.50 4439.50,1662.50 4439.50,1662.50
             4439.50,1662.50 4450.50,1642.50 4450.50,1642.50
             4450.50,1642.50 4467.50,1631.00 4467.50,1631.00
             4467.50,1631.00 4452.00,1597.00 4452.00,1597.00
             4452.00,1597.00 4432.50,1558.50 4432.50,1558.50
             4432.50,1558.50 4420.00,1527.00 4420.00,1527.00
             4420.00,1527.00 4394.00,1509.00 4394.00,1509.00
             4394.00,1509.00 4360.50,1473.00 4360.50,1473.00
             4360.50,1473.00 4342.50,1450.00 4342.50,1450.00
             4342.50,1450.00 4341.50,1431.50 4341.50,1431.50
             4341.50,1431.50 4363.00,1413.00 4363.00,1413.00
             4363.00,1413.00 4384.00,1386.50 4384.00,1386.50
             4384.00,1386.50 4356.50,1364.00 4356.50,1364.00
             4356.50,1364.00 4311.00,1343.00 4311.00,1343.00
             4311.00,1343.00 4296.50,1314.50 4296.50,1314.50
             4296.50,1314.50 4265.00,1310.50 4265.00,1310.50
             4265.00,1310.50 4240.00,1292.00 4240.00,1292.00
             4240.00,1292.00 4247.00,1252.00 4247.00,1252.00
             4247.00,1252.00 4252.50,1237.00 4252.50,1237.00
             4252.50,1237.00 4252.50,1202.50 4252.50,1202.50
             4252.50,1202.50 4272.00,1180.00 4272.00,1180.00
             4272.00,1180.00 4285.00,1152.50 4285.00,1152.50
             4285.00,1152.50 4288.50,1139.50 4288.50,1139.50
             4288.50,1139.50 4284.00,1128.00 4284.00,1128.00
             4284.00,1128.00 4282.50,1118.50 4282.50,1118.50
             4282.50,1118.50 4292.00,1102.00 4292.00,1102.00
             4292.00,1102.00 4305.00,1089.50 4305.00,1089.50
             4305.00,1089.50 4278.00,1053.00 4278.00,1053.00
             4278.00,1053.00 4272.50,1030.00 4272.50,1030.00
             4272.50,1030.00 4270.00,1008.50 4270.00,1008.50
             4270.00,1008.50 4260.67,1000.00 4260.67,1000.00
             4260.67,1000.00 4190.67,996.67 4190.67,996.67
             4190.67,996.67 4138.67,977.33 4138.67,977.33
             4138.67,977.33 4099.33,954.00 4099.33,954.00
             4099.33,954.00 4060.67,924.67 4060.67,924.67
             4060.67,924.67 4004.00,878.67 4004.00,878.67
             4004.00,878.67 3951.33,836.67 3951.33,836.67
             3951.33,836.67 3942.00,820.00 3942.00,820.00
             3942.00,820.00 3886.00,812.00 3886.00,812.00
             3886.00,812.00 3870.00,802.00 3870.00,802.00
             3870.00,802.00 2176.67,1076.67 2176.67,1076.67" />
</svg>

